<?xml version="1.0" encoding="utf-8"?>

<svg version="1.1" id="Layer_1" xmlns="http://www.w3.org/2000/svg" xmlns:xlink="http://www.w3.org/1999/xlink" x="0px" y="0px"
	 viewBox="0 0 100 100" style="enable-background:new 0 0 100 100;" xml:space="preserve">
<style type="text/css">
	.st0{fill:#FFFFFF;}
</style>
<g>
	<path class="st0" d="M5.1,48.6C5.3,33.9,18.9,21,33.6,21.5c7.1-0.3,13.7,2.7,19.1,7.1c-2.3,2.6-4.7,5.1-7.2,7.5
		c-6.5-4.5-15.7-5.8-22.2-0.6C14,41.9,13.6,57.1,22.5,64c8.7,7.9,25.1,4,27.5-8.1c-5.4-0.1-10.9,0-16.3-0.2c0-3.2,0-6.5,0-9.7
		c9.1,0,18.2,0,27.3,0c0.5,7.6-0.5,15.8-5.2,22.1C48.6,78,34.4,81,23.2,76.7C12,72.4,4.1,60.6,5.1,48.6z"/>
	<path class="st0" d="M78.7,37.7c2.7,0,5.4,0,8.1,0c0,2.7,0,5.4,0.1,8.2c2.7,0,5.4,0,8.2,0.1c0,2.7,0,5.4,0,8.1
		c-2.7,0-5.4,0-8.2,0.1c0,2.7,0,5.4-0.1,8.2c-2.7,0-5.4,0-8.1,0c0-2.7,0-5.4-0.1-8.1c-2.7,0-5.4-0.1-8.2-0.1c0-2.7,0-5.4,0-8.1
		c2.7,0,5.4,0,8.2-0.1C78.6,43.1,78.6,40.4,78.7,37.7z"/>
</g>
</svg>
