<?xml version="1.0" encoding="utf-8"?>

<svg version="1.1" id="Ebene_1" xmlns="http://www.w3.org/2000/svg" xmlns:xlink="http://www.w3.org/1999/xlink" x="0px" y="0px"
	 viewBox="0 0 100 100" style="enable-background:new 0 0 100 100;" xml:space="preserve">
<style type="text/css">
	.st0{fill:#FFFFFF;}
</style>
<path class="st0" d="M17.1,38.6h14.1v45.3H17.1V38.6z M24.2,16.1c4.5,0,8.2,3.7,8.2,8.2s-3.7,8.2-8.2,8.2S16,28.8,16,24.3
	C16,19.7,19.6,16.1,24.2,16.1"/>
<path class="st0" d="M40.1,38.6h13.5v6.2h0.2c1.9-3.6,6.5-7.3,13.3-7.3c14.3,0,16.9,9.4,16.9,21.6V84H69.9V62c0-5.3-0.1-12-7.3-12
	c-7.3,0-8.5,5.7-8.5,11.6V84h-14C40.1,84,40.1,38.6,40.1,38.6z"/>
</svg>
