<?xml version="1.0" encoding="utf-8"?>
<svg version="1.1" id="Ebene_1" xmlns="http://www.w3.org/2000/svg" xmlns:xlink="http://www.w3.org/1999/xlink" x="0px" y="0px"
	 viewBox="0 0 100 100" style="enable-background:new 0 0 100 100;" xml:space="preserve">
<style type="text/css">
	.st0{fill:#FFFFFF;}
</style>
<path class="st0" d="M84.8,75.5L67.2,57.2c3.1-4.5,4.8-10,4.8-15.9c0-15.9-13.1-29-29-29c-16.2,0-29.3,13.1-29.3,29s13.1,29,29,29
	c4.8,0,9-1,13.1-3.1l18.3,19c0,0,3.4,3.4,7.2-0.3l3.1-3.1C84.5,82.8,88.3,79,84.8,75.5z M25.5,58.6c-4.5-4.5-7.2-10.3-7.2-17.2
	s2.8-12.8,7.2-17.2S35.8,17,42.7,17s12.8,2.8,17.2,7.2s7.2,10.3,7.2,17.2S64.5,54.1,60,58.6s-10.3,7.2-17.2,7.2
	C36.2,65.9,30,63.1,25.5,58.6z"/>
</svg>
