<?xml version="1.0" encoding="utf-8"?>

<svg version="1.1" id="Logo" xmlns="http://www.w3.org/2000/svg" xmlns:xlink="http://www.w3.org/1999/xlink" x="0px" y="0px"
	 viewBox="0 0 100 100" style="enable-background:new 0 0 100 100;" xml:space="preserve">
<style type="text/css">
	.st0{fill:#FFFFFF;}
</style>
<g>
	<path class="st0" d="M50,25.4c8,0,9,0,12.1,0.2c2.9,0.1,4.5,0.6,5.6,1c1.4,0.5,2.4,1.2,3.4,2.2s1.7,2,2.2,3.4
		c0.4,1.1,0.9,2.6,1,5.6C74.6,41,74.6,42,74.6,50s0,9-0.2,12.1c-0.1,2.9-0.6,4.5-1,5.6c-0.5,1.4-1.2,2.4-2.2,3.4s-2,1.7-3.4,2.2
		c-1.1,0.4-2.6,0.9-5.6,1C59,74.6,58,74.6,50,74.6s-9,0-12.1-0.2c-2.9-0.1-4.5-0.6-5.6-1c-1.4-0.5-2.4-1.2-3.4-2.2s-1.7-2-2.2-3.4
		c-0.4-1.1-0.9-2.6-1-5.6C25.4,59,25.4,58,25.4,50s0-9,0.2-12.1c0.1-2.9,0.6-4.5,1-5.6c0.5-1.4,1.2-2.4,2.2-3.4s2-1.7,3.4-2.2
		c1.1-0.4,2.6-0.9,5.6-1C41,25.4,42,25.4,50,25.4 M50,20c-8.1,0-9.2,0-12.4,0.2c-3.2,0.1-5.4,0.7-7.3,1.4c-2,0.8-3.6,1.8-5.3,3.5
		c-1.7,1.7-2.7,3.3-3.5,5.3c-0.7,1.9-1.2,4.1-1.4,7.3C20,40.8,20,41.9,20,50s0,9.2,0.2,12.4c0.1,3.2,0.7,5.4,1.4,7.3
		c0.8,2,1.8,3.6,3.5,5.3c1.7,1.7,3.3,2.7,5.3,3.5c1.9,0.7,4.1,1.2,7.3,1.4C40.8,80,41.9,80,50,80s9.2,0,12.4-0.2
		c3.2-0.1,5.4-0.7,7.3-1.4c2-0.8,3.6-1.8,5.3-3.5c1.7-1.7,2.7-3.3,3.5-5.3c0.7-1.9,1.2-4.1,1.4-7.3C80,59.2,80,58.1,80,50
		s0-9.2-0.2-12.4c-0.1-3.2-0.7-5.4-1.4-7.3c-0.8-2-1.8-3.6-3.5-5.3c-1.7-1.7-3.3-2.7-5.3-3.5c-1.9-0.7-4.1-1.2-7.3-1.4
		C59.2,20,58.1,20,50,20L50,20z"/>
	<path class="st0" d="M50,34.6c-8.5,0-15.4,6.9-15.4,15.4S41.5,65.4,50,65.4S65.4,58.5,65.4,50S58.5,34.6,50,34.6z M50,60
		c-5.5,0-10-4.5-10-10s4.5-10,10-10s10,4.5,10,10S55.5,60,50,60z"/>
	<circle class="st0" cx="66" cy="34" r="3.6"/>
</g>
</svg>
