<?xml version="1.0" encoding="utf-8"?>

<svg version="1.1" id="White" xmlns="http://www.w3.org/2000/svg" xmlns:xlink="http://www.w3.org/1999/xlink" x="0px" y="0px"
	 viewBox="0 0 100 100" style="enable-background:new 0 0 100 100;" xml:space="preserve">
<style type="text/css">
	.st0{fill:#FFFFFF;}
</style>
<path class="st0" d="M79.5,25.5c-2.5,1.5-5.2,2.5-8.2,3.1c-2.3-2.5-5.7-4.1-9.3-4.1c-7.1,0-12.8,5.8-12.8,12.8c0,1,0.1,2,0.3,2.9
	C38.9,39.8,29.4,34.7,23.1,27c-1.1,1.9-1.7,4.1-1.7,6.5c0,4.4,2.3,8.4,5.7,10.7C25,44,23,43.4,21.3,42.5c0,0.1,0,0.1,0,0.2
	c0,6.2,4.4,11.4,10.3,12.6c-1.1,0.3-2.2,0.5-3.4,0.5c-0.8,0-1.6-0.1-2.4-0.2c1.6,5.1,6.4,8.8,12,8.9c-4.4,3.5-9.9,5.5-15.9,5.5
	c-1,0-2,0-3-0.2c5.6,3.6,12.4,5.7,19.6,5.7c23.6,0,36.5-19.6,36.5-36.5c0-0.5,0-1.1,0-1.6c2.5-1.8,4.7-4.1,6.4-6.7
	c-2.3,1-4.8,1.7-7.4,2C76.5,31.1,78.5,28.5,79.5,25.5z"/>
</svg>
